<svg width="540" height="540" viewBox="0 0 540 540" fill="none" xmlns="http://www.w3.org/2000/svg">
<rect width="540" height="540" fill="white"/>
<rect width="540" height="540" fill="#4F4FFF"/>
<path d="M416.5 357.5H121.225C101.765 357.5 92.0341 357.5 85.4419 352.188C84.1055 351.112 82.8885 349.895 81.8117 348.558C76.5 341.966 76.5 332.235 76.5 312.775C76.5 296.925 76.5 289.001 80.4593 282.992C81.2702 281.761 82.1928 280.608 83.2153 279.546C88.2077 274.364 95.9388 272.623 111.401 269.142L134.752 263.884C143.285 261.962 147.551 261.002 151.144 258.677C154.736 256.352 157.36 252.853 162.608 245.856L196.1 201.2C203.166 191.778 206.699 187.067 211.767 184.534C216.834 182 222.723 182 234.5 182H374.572C387.024 182 393.25 182 398.521 184.792C403.791 187.584 407.289 192.735 414.283 203.038L414.283 203.038L456.212 264.793C460.325 270.85 462.381 273.879 463.441 277.326C464.5 280.772 464.5 284.433 464.5 291.755V309.5C464.5 332.127 464.5 343.441 457.471 350.471C450.441 357.5 439.127 357.5 416.5 357.5Z" fill="#FF4F4F"/>
<circle cx="387.5" cy="359.5" r="30.5" fill="#C4C4C4" stroke="black" stroke-width="16"/>
<circle cx="179.5" cy="359.5" r="30.5" fill="#C4C4C4" stroke="black" stroke-width="16"/>
<path d="M214.897 199.542C217.173 196.673 220.635 195 224.298 195H283.5C290.127 195 295.5 200.373 295.5 207V258C295.5 264.627 290.127 270 283.5 270H183.838C173.798 270 168.197 258.407 174.437 250.542L214.897 199.542Z" fill="#6FBFE4"/>
<path d="M214.897 199.542C217.173 196.673 220.635 195 224.298 195H283.5C290.127 195 295.5 200.373 295.5 207V258C295.5 264.627 290.127 270 283.5 270H183.838C173.798 270 168.197 258.407 174.437 250.542L214.897 199.542Z" stroke="black"/>
<path d="M392.064 199.696C389.793 196.735 386.274 195 382.543 195H326C319.373 195 314 200.373 314 207V258C314 264.627 319.373 270 326 270H421.669C431.618 270 437.246 258.589 431.19 250.696L392.064 199.696Z" fill="#6FBFE4"/>
<path d="M392.064 199.696C389.793 196.735 386.274 195 382.543 195H326C319.373 195 314 200.373 314 207V258C314 264.627 319.373 270 326 270H421.669C431.618 270 437.246 258.589 431.19 250.696L392.064 199.696Z" stroke="black"/>
<path d="M211.035 327.777C208.585 325.236 210.385 321 213.914 321H353.598C357.196 321 358.965 325.379 356.377 327.878L350.162 333.878C349.417 334.598 348.421 335 347.384 335H219.7C218.614 335 217.574 334.558 216.82 333.777L211.035 327.777Z" fill="black"/>
<path d="M73.0005 325C73.0005 322.791 74.7914 321 77.0005 321H145.382C148.94 321 150.727 325.297 148.218 327.82L142.252 333.82C141.501 334.575 140.48 335 139.415 335H77.0006C74.7914 335 73.0006 333.209 73.0006 331L73.0005 325Z" fill="black"/>
<path d="M468 325C468 322.791 466.21 321 464 321H422.326C419.162 321 417.25 324.501 418.961 327.163L422.818 333.163C423.554 334.308 424.822 335 426.183 335H464C466.21 335 468 333.209 468 331L468 325Z" fill="black"/>
<rect x="263" y="277" width="33" height="10" rx="4" fill="black"/>
<path d="M77 294H86.125C91.5788 294 96 298.421 96 303.875C96 309.23 91.7316 313.609 86.3781 313.747L76.5 314C76.5 304 76 306.5 77 294Z" fill="#FBDF8C"/>
<path d="M464.5 293H456C450.477 293 446 297.477 446 303V304C446 309.523 450.477 314 456 314H464.5V293Z" fill="#EC4545"/>
</svg>
